<svg width="16" height="23" viewBox="0 0 16 23" fill="none" xmlns="http://www.w3.org/2000/svg">
<path d="M15.2256 8.3937L13.1711 1.4167C13.125 1.26039 13.0296 1.12316 12.8992 1.02552C12.7687 0.927889 12.6102 0.875084 12.4472 0.875H3.40817C3.24522 0.875084 3.08666 0.927889 2.9562 1.02552C2.82573 1.12316 2.73036 1.26039 2.68433 1.4167L0.629827 8.3937C0.307487 9.46309 0.290617 10.6013 0.581123 11.6798C0.871629 12.7583 1.45793 13.734 2.2738 14.4968C3.61592 15.7553 5.3403 16.529 7.17271 16.6947V20.5046H4.15277C3.95254 20.5046 3.7605 20.5841 3.61892 20.7257C3.47733 20.8673 3.39779 21.0593 3.39779 21.2596C3.39779 21.4598 3.47733 21.6518 3.61892 21.7934C3.7605 21.935 3.95254 22.0145 4.15277 22.0145H11.7026C11.9028 22.0145 12.0949 21.935 12.2365 21.7934C12.3781 21.6518 12.4576 21.4598 12.4576 21.2596C12.4576 21.0593 12.3781 20.8673 12.2365 20.7257C12.0949 20.5841 11.9028 20.5046 11.7026 20.5046H8.68267V16.6947C10.5151 16.529 12.2395 15.7553 13.5816 14.4968C14.3974 13.734 14.9838 12.7583 15.2743 11.6798C15.5648 10.6013 15.5479 9.46309 15.2256 8.3937ZM3.97252 2.38497H11.8829L13.7788 8.82026C13.7873 8.84857 13.7949 8.87689 13.8024 8.9052C11.7809 9.62998 9.50466 8.7542 8.26932 8.12851C5.89206 6.92525 4.00461 6.77237 2.6126 7.00264L3.97252 2.38497ZM12.552 13.3936C11.2983 14.5675 9.64514 15.2206 7.92769 15.2206C6.21024 15.2206 4.55707 14.5675 3.30341 13.3936C2.6929 12.8214 2.25449 12.09 2.0377 11.2819C1.82091 10.4738 1.83437 9.62114 2.07657 8.82026L2.11903 8.67681C3.25151 8.29366 5.0512 8.19174 7.58606 9.47615C8.63832 10.0094 10.338 10.6888 12.1565 10.6888C12.7644 10.6919 13.3696 10.6093 13.9543 10.4435C13.8773 11.5689 13.3761 12.6233 12.552 13.3936Z" fill="black"/>
</svg>
