<svg width="25" height="20" viewBox="0 0 25 20" fill="none" xmlns="http://www.w3.org/2000/svg">
<path d="M5.93118 0.179688H19.0422C19.9166 0.179647 20.7581 0.490818 21.3951 1.04973C22.032 1.60864 22.4164 2.37318 22.4698 3.18741L22.476 3.38311V7.29012C23.1568 7.47007 23.7614 7.84184 24.2071 8.35457C24.6528 8.8673 24.9178 9.49596 24.9659 10.1546L24.9734 10.3724V19.109C24.9733 19.3304 24.8832 19.5434 24.7212 19.7052C24.5592 19.8669 24.3374 19.9653 24.1007 19.9804C23.864 19.9955 23.6299 19.9261 23.4459 19.7865C23.2618 19.6468 23.1415 19.4471 23.1091 19.2278L23.1004 19.109V16.488H1.873V19.109C1.87299 19.3201 1.79104 19.5241 1.64229 19.6832C1.49354 19.8423 1.28807 19.9458 1.06387 19.9745L0.936502 19.9827C0.710196 19.9827 0.491548 19.9062 0.320994 19.7674C0.150441 19.6287 0.0395182 19.437 0.00874064 19.2278L0 19.109V10.3724C0 8.90581 1.05637 7.66987 2.49734 7.28896V3.38311C2.49729 2.56736 2.83085 1.78232 3.42996 1.18813C4.02907 0.593933 4.84861 0.235347 5.7214 0.185512L5.93118 0.179688ZM21.5395 8.91629H3.43384C3.04743 8.91613 2.67469 9.04969 2.38775 9.29112C2.10081 9.53256 1.92006 9.8647 1.8805 10.2233L1.873 10.3724V14.7407H23.1004V10.3724C23.1002 10.0121 22.9569 9.66467 22.6982 9.39723C22.4394 9.12979 22.0835 8.96134 21.6994 8.92445L21.5395 8.91629ZM19.0422 1.92701H5.93118C5.54477 1.92684 5.17203 2.0604 4.88508 2.30184C4.59814 2.54327 4.4174 2.87542 4.37783 3.23401L4.37034 3.38311V7.16897H6.24334C6.24334 6.86003 6.3749 6.56374 6.60907 6.34528C6.84324 6.12682 7.16084 6.00409 7.49201 6.00409H9.98935C10.2952 6.00413 10.5904 6.10888 10.8189 6.29847C11.0475 6.48807 11.1935 6.74932 11.2293 7.03268L11.238 7.16897H13.7354C13.7354 6.86003 13.8669 6.56374 14.1011 6.34528C14.3353 6.12682 14.6529 6.00409 14.984 6.00409H17.4814C17.7872 6.00413 18.0824 6.10888 18.3109 6.29847C18.5395 6.48807 18.6855 6.74932 18.7213 7.03268L18.73 7.16897H20.603V3.38311C20.6032 3.02263 20.46 2.6749 20.2012 2.40721C19.9424 2.13953 19.5864 1.97091 19.202 1.934L19.0422 1.92701Z" fill="black"/>
</svg>
