<svg width="23" height="22" viewBox="0 0 23 22" fill="none" xmlns="http://www.w3.org/2000/svg">
<path d="M11.375 6.40761V6.84783M11.375 6.40761C11.375 5.00657 11.9846 3.66292 13.0696 2.67224C14.1546 1.68156 15.6262 1.125 17.1607 1.125H17.6429V6.84783C17.6429 8.36561 16.9825 9.82124 15.807 10.8945C14.6316 11.9677 13.0373 12.5707 11.375 12.5707M11.375 6.40761C11.375 5.00657 10.7654 3.66292 9.6804 2.67224C8.59537 1.68156 7.12375 1.125 5.58929 1.125H5.10714V6.84783C5.10714 8.36561 5.7675 9.82124 6.94296 10.8945C8.11841 11.9677 9.71266 12.5707 11.375 12.5707M11.375 12.5707V20.9348M11.375 12.5707V20.4946M11.375 21.375H7.03571C5.50125 21.375 4.02963 20.8184 2.9446 19.8278C1.85956 18.8371 1.25 17.4934 1.25 16.0924H5.58929C7.12375 16.0924 8.59537 16.649 9.6804 17.6396C10.7654 18.6303 11.375 19.974 11.375 21.375ZM11.375 21.375H15.7143C17.2488 21.375 18.7204 20.8184 19.8054 19.8278C20.8904 18.8371 21.5 17.4934 21.5 16.0924H17.1607C15.6262 16.0924 14.1546 16.649 13.0696 17.6396C11.9846 18.6303 11.375 19.974 11.375 21.375Z" stroke="black" stroke-width="1.125"/>
</svg>
