<svg width="27" height="19" viewBox="0 0 27 19" fill="none" xmlns="http://www.w3.org/2000/svg">
<path d="M8.575 1.5H5.425C5.24598 1.5 5.07429 1.59956 4.9477 1.77678C4.82112 1.95401 4.75 2.19437 4.75 2.445V16.305C4.75 16.4291 4.76746 16.552 4.80138 16.6666C4.8353 16.7813 4.88502 16.8855 4.9477 16.9732C5.01038 17.061 5.08479 17.1306 5.16669 17.1781C5.24858 17.2256 5.33636 17.25 5.425 17.25H8.575C8.66364 17.25 8.75142 17.2256 8.83331 17.1781C8.91521 17.1306 8.98962 17.061 9.0523 16.9732C9.11498 16.8855 9.1647 16.7813 9.19862 16.6666C9.23254 16.552 9.25 16.4291 9.25 16.305V2.445C9.25 2.19437 9.17888 1.95401 9.0523 1.77678C8.92571 1.59956 8.75402 1.5 8.575 1.5ZM22.075 1.5H18.925C18.746 1.5 18.5743 1.59956 18.4477 1.77678C18.3211 1.95401 18.25 2.19437 18.25 2.445V16.305C18.25 16.4291 18.2675 16.552 18.3014 16.6666C18.3353 16.7813 18.385 16.8855 18.4477 16.9732C18.5104 17.061 18.5848 17.1306 18.6667 17.1781C18.7486 17.2256 18.8364 17.25 18.925 17.25H22.075C22.1636 17.25 22.2514 17.2256 22.3333 17.1781C22.4152 17.1306 22.4896 17.061 22.5523 16.9732C22.615 16.8855 22.6647 16.7813 22.6986 16.6666C22.7325 16.552 22.75 16.4291 22.75 16.305V2.445C22.75 2.19437 22.6789 1.95401 22.5523 1.77678C22.4257 1.59956 22.254 1.5 22.075 1.5Z" stroke="black" stroke-width="1.6875" stroke-linecap="round" stroke-linejoin="round"/>
<path d="M9.25 9.37539H18.25M1.375 13.1554V5.59539C1.375 5.34476 1.44612 5.1044 1.5727 4.92717C1.69929 4.74995 1.87098 4.65039 2.05 4.65039H4.075C4.25402 4.65039 4.42571 4.74995 4.5523 4.92717C4.67888 5.1044 4.75 5.34476 4.75 5.59539V13.1554C4.75 13.406 4.67888 13.6464 4.5523 13.8236C4.42571 14.0008 4.25402 14.1004 4.075 14.1004H2.05C1.87098 14.1004 1.69929 14.0008 1.5727 13.8236C1.44612 13.6464 1.375 13.406 1.375 13.1554ZM26.125 13.1554V5.59539C26.125 5.34476 26.0539 5.1044 25.9273 4.92717C25.8007 4.74995 25.629 4.65039 25.45 4.65039H23.425C23.246 4.65039 23.0743 4.74995 22.9477 4.92717C22.8211 5.1044 22.75 5.34476 22.75 5.59539V13.1554C22.75 13.406 22.8211 13.6464 22.9477 13.8236C23.0743 14.0008 23.246 14.1004 23.425 14.1004H25.45C25.629 14.1004 25.8007 14.0008 25.9273 13.8236C26.0539 13.6464 26.125 13.406 26.125 13.1554Z" stroke="black" stroke-width="1.6875" stroke-linecap="round" stroke-linejoin="round"/>
</svg>
