<svg width="22" height="22" viewBox="0 0 22 22" fill="none" xmlns="http://www.w3.org/2000/svg">
<path d="M11.1455 13.2207C12.3881 13.2207 13.3955 12.2133 13.3955 10.9707C13.3955 9.72806 12.3881 8.7207 11.1455 8.7207C9.90287 8.7207 8.89551 9.72806 8.89551 10.9707C8.89551 12.2133 9.90287 13.2207 11.1455 13.2207Z" stroke="black" stroke-width="1.6875"/>
<path d="M3.71964 4.08558L4.14152 3.35433C3.97589 3.25878 3.78271 3.22232 3.59364 3.25094C3.40457 3.27955 3.23083 3.37154 3.10089 3.51183L3.71964 4.08558ZM1.47077 7.98258L0.664145 7.73283C0.607717 7.91558 0.615059 8.11209 0.684965 8.29012C0.754872 8.46816 0.883195 8.61716 1.04889 8.7127L1.47077 7.98258ZM1.46852 13.9575L1.04664 13.2262C0.88091 13.322 0.752658 13.4712 0.682948 13.6495C0.613237 13.8277 0.606209 14.0244 0.66302 14.2072L1.46852 13.9575ZM3.71852 17.8545L3.09977 18.4282C3.22971 18.5685 3.40345 18.6605 3.59251 18.6891C3.78158 18.7177 3.97476 18.6813 4.14039 18.5857L3.71852 17.8545ZM8.89352 20.8413H8.04977C8.04977 21.2351 8.32314 21.576 8.70677 21.6637L8.89352 20.8413ZM13.3946 20.8436L13.5825 21.6671C13.769 21.6245 13.9355 21.5198 14.0546 21.3702C14.1738 21.2205 14.2386 21.0349 14.2384 20.8436H13.3946ZM18.5708 17.8556L18.1489 18.5868C18.3145 18.6824 18.5077 18.7188 18.6968 18.6902C18.8858 18.6616 19.0596 18.5696 19.1895 18.4293L18.5708 17.8556ZM20.8185 13.9563L21.6251 14.2061C21.6816 14.0233 21.6742 13.8268 21.6043 13.6488C21.5344 13.4707 21.4061 13.3217 21.2404 13.2262L20.8185 13.9563ZM20.8208 7.98145L21.2426 8.7127C21.4084 8.61694 21.5366 8.46768 21.6063 8.28942C21.6761 8.11115 21.6831 7.91449 21.6263 7.7317L20.8208 7.98145ZM18.5708 4.08333L19.1895 3.5107C19.0596 3.37042 18.8858 3.27843 18.6968 3.24981C18.5077 3.2212 18.3145 3.25765 18.1489 3.3532L18.5708 4.08333ZM13.3958 1.0987H14.2395C14.2395 0.907611 14.1746 0.722195 14.0554 0.572799C13.9363 0.423403 13.7699 0.318876 13.5836 0.276327L13.3958 1.0987ZM8.89577 1.09645L8.7079 0.272952C8.52141 0.315544 8.35494 0.420237 8.23577 0.569863C8.1166 0.71949 8.05181 0.905168 8.05202 1.09645H8.89577ZM2.27739 8.23233C2.68685 6.90136 3.39091 5.67974 4.33727 4.6582L3.09977 3.5107C1.98146 4.7178 1.14937 6.16126 0.66527 7.73395L2.27739 8.23233ZM3.10764 15.6112C2.76018 15.0104 2.48094 14.3727 2.27514 13.71L0.664145 14.2083C0.906793 14.9915 1.23621 15.745 1.64627 16.455L3.10764 15.6112ZM4.33839 17.283C3.86714 16.7733 3.45433 16.2126 3.10764 15.6112L1.64627 16.455C2.0557 17.1652 2.54323 17.8263 3.09977 18.4282L4.33839 17.283ZM13.2079 20.0223C11.8504 20.3313 10.4408 20.3305 9.08364 20.0201L8.7079 21.6648C10.3123 22.0321 11.9788 22.0332 13.5836 21.6682L13.2079 20.0223ZM20.0141 13.7088C19.6046 15.0398 18.9006 16.2614 17.9543 17.283L19.1918 18.4305C20.3101 17.2234 21.1422 15.7799 21.6263 14.2072L20.0141 13.7088ZM19.1839 6.32995C19.5383 6.94533 19.8139 7.58208 20.0164 8.2312L21.6274 7.73283C21.3848 6.94969 21.0553 6.19614 20.6453 5.4862L19.1839 6.32995ZM17.952 4.6582C18.4133 5.15658 18.8273 5.7157 19.1828 6.32995L20.6453 5.4862C20.2355 4.77592 19.7465 4.11255 19.1895 3.5107L17.952 4.6582ZM9.08252 1.91883C10.44 1.60987 11.8496 1.61064 13.2068 1.92108L13.5836 0.276327C11.9793 -0.0909661 10.3116 -0.0921197 8.70677 0.272952L9.08252 1.91883ZM9.73839 3.17658V1.09533H8.05089V3.17658H9.73839ZM5.94264 4.39383L4.14152 3.35433L3.29777 4.8157L5.09777 5.8552L5.94264 4.39383ZM2.84889 12.189L1.04777 13.2285L1.89152 14.6898L3.69264 13.6503L2.84889 12.189ZM3.69264 8.29083L1.89264 7.25245L1.04889 8.71495L2.84889 9.75333L3.69264 8.29083ZM9.73952 20.8425V18.7646H8.05202V20.8425H9.73952ZM5.09889 16.086L3.29777 17.1255L4.14152 18.588L5.94152 17.5473L5.09889 16.086ZM18.9938 17.1255L17.1926 16.086L16.3489 17.5473L18.1489 18.5868L18.9938 17.1255ZM14.2395 20.8447V18.7646H12.552V20.8458L14.2395 20.8447ZM20.4 7.25133L18.5989 8.29083L19.4426 9.75333L21.2426 8.7127L20.4 7.25133ZM21.2415 13.2273L19.4426 12.1878L18.5989 13.6503L20.3989 14.6887L21.2415 13.2273ZM14.2395 3.17658V1.0987H12.552V3.17658H14.2395ZM18.15 3.35433L16.3489 4.39383L17.1926 5.85633L18.9938 4.8157L18.15 3.35433ZM12.552 3.17658C12.552 5.5582 15.1305 7.0477 17.1926 5.85633L16.3489 4.39383C16.1352 4.51723 15.8927 4.5822 15.6459 4.58223C15.3991 4.58225 15.1567 4.51733 14.9429 4.39398C14.7291 4.27062 14.5516 4.09319 14.4281 3.87949C14.3047 3.6658 14.2396 3.42337 14.2395 3.17658H12.552ZM18.5989 8.29083C16.5368 9.4822 16.5368 12.459 18.5989 13.6503L19.4426 12.1878C19.2289 12.0644 19.0514 11.8869 18.928 11.6731C18.8046 11.4593 18.7396 11.2169 18.7396 10.97C18.7396 10.7232 18.8046 10.4807 18.928 10.2669C19.0514 10.0532 19.2289 9.87563 19.4426 9.7522L18.5989 8.29083ZM17.1926 16.086C15.1305 14.8946 12.552 16.3829 12.552 18.7646H14.2395C14.2396 18.5178 14.3047 18.2754 14.4281 18.0617C14.5516 17.848 14.7291 17.6705 14.9429 17.5472C15.1567 17.4238 15.3991 17.3589 15.6459 17.3589C15.8927 17.359 16.1352 17.4239 16.3489 17.5473L17.1926 16.086ZM9.73952 18.7646C9.73952 16.3829 7.16102 14.8946 5.09889 16.086L5.94152 17.5473C6.15525 17.4239 6.39882 17.359 6.64562 17.3589C6.89242 17.3589 7.13488 17.4238 7.34864 17.5472C7.5624 17.6705 7.73993 17.848 7.86339 18.0617C7.98686 18.2754 8.05191 18.5178 8.05202 18.7646H9.73952ZM3.69264 13.6503C5.75477 12.459 5.75477 9.4822 3.69264 8.29083L2.84889 9.75333C3.06265 9.87676 3.24016 10.0543 3.36357 10.268C3.48699 10.4818 3.55196 10.7243 3.55196 10.9711C3.55196 11.218 3.48699 11.4605 3.36357 11.6742C3.24016 11.888 3.06265 12.0655 2.84889 12.189L3.69264 13.6503ZM8.05202 3.17658C8.05191 3.42337 7.98686 3.6658 7.86339 3.87949C7.73993 4.09319 7.5624 4.27062 7.34864 4.39398C7.13488 4.51733 6.89242 4.58225 6.64562 4.58223C6.39882 4.5822 6.15638 4.51723 5.94264 4.39383L5.09889 5.85633C7.16102 7.04658 9.73952 5.5582 9.73952 3.17658H8.05202Z" fill="black"/>
</svg>
