<svg width="14" height="21" viewBox="0 0 14 21" fill="none" xmlns="http://www.w3.org/2000/svg">
<path fill-rule="evenodd" clip-rule="evenodd" d="M12.6429 7.9725H8.05297L10.7891 1.58901C10.8284 1.49743 10.8443 1.39752 10.8354 1.29827C10.8265 1.19901 10.7931 1.10352 10.7382 1.02035C10.6834 0.937177 10.6087 0.868937 10.5209 0.821752C10.4331 0.774566 10.335 0.749912 10.2354 0.75H4.21662C4.09875 0.749895 3.98344 0.784404 3.885 0.849243C3.78657 0.914083 3.70933 1.0064 3.66289 1.11474L0.0516433 9.54099C0.0123813 9.63258 -0.00352538 9.73248 0.00535025 9.83173C0.0142259 9.93099 0.0476061 10.0265 0.102496 10.1097C0.157385 10.1928 0.232066 10.2611 0.319836 10.3082C0.407606 10.3554 0.505719 10.3801 0.605368 10.38H3.58345L0.0468281 19.1842C-0.193922 19.7825 0.548792 20.2893 1.01825 19.8463L7.06589 14.1369L13.0341 9.0318C13.1276 8.95183 13.1944 8.84513 13.2254 8.72606C13.2564 8.60699 13.2501 8.48128 13.2075 8.36586C13.1649 8.25044 13.0879 8.15085 12.987 8.08052C12.886 8.01019 12.7659 7.97249 12.6429 7.9725ZM7.14053 9.17625H11.013L6.26059 13.2425L2.18589 17.0885L5.03276 10.002C5.06936 9.9107 5.08301 9.81181 5.07253 9.71399C5.06204 9.61617 5.02774 9.52241 4.97262 9.44092C4.91751 9.35943 4.84325 9.29269 4.75636 9.24655C4.66947 9.20041 4.5726 9.17627 4.47422 9.17625H1.51781L4.61386 1.95375H9.32293L6.5868 8.33724C6.54754 8.42883 6.53163 8.52873 6.54051 8.62798C6.54938 8.72724 6.58276 8.82273 6.63765 8.9059C6.69254 8.98907 6.76723 9.05731 6.855 9.1045C6.94277 9.15168 7.04088 9.17634 7.14053 9.17625Z" fill="black"/>
</svg>
