<svg width="28" height="20" viewBox="0 0 28 20" fill="none" xmlns="http://www.w3.org/2000/svg">
<path d="M14.25 19.25C13.4625 19.25 12.7969 18.9781 12.2531 18.4344C11.7094 17.8906 11.4375 17.225 11.4375 16.4375C11.4375 15.65 11.7094 14.9844 12.2531 14.4406C12.7969 13.8969 13.4625 13.625 14.25 13.625C15.0375 13.625 15.7031 13.8969 16.2469 14.4406C16.7906 14.9844 17.0625 15.65 17.0625 16.4375C17.0625 17.225 16.7906 17.8906 16.2469 18.4344C15.7031 18.9781 15.0375 19.25 14.25 19.25ZM7.89375 12.8938L5.53125 10.475C6.6375 9.36875 7.93612 8.49238 9.42712 7.84587C10.9181 7.19937 12.5258 6.87575 14.25 6.875C15.9742 6.87425 17.5823 7.20237 19.074 7.85938C20.5658 8.51637 21.864 9.407 22.9688 10.5312L20.6062 12.8938C19.7812 12.0688 18.825 11.4219 17.7375 10.9531C16.65 10.4844 15.4875 10.25 14.25 10.25C13.0125 10.25 11.85 10.4844 10.7625 10.9531C9.675 11.4219 8.71875 12.0688 7.89375 12.8938ZM3.1125 8.1125L0.75 5.75C2.475 3.9875 4.49063 2.60937 6.79688 1.61562C9.10312 0.621875 11.5875 0.125 14.25 0.125C16.9125 0.125 19.3969 0.621875 21.7031 1.61562C24.0094 2.60937 26.025 3.9875 27.75 5.75L25.3875 8.1125C23.9438 6.66875 22.2705 5.53925 20.3678 4.724C18.465 3.90875 16.4257 3.50075 14.25 3.5C12.0743 3.49925 10.0354 3.90725 8.13338 4.724C6.23138 5.54075 4.55775 6.67025 3.1125 8.1125Z" fill="black"/>
</svg>
