<svg width="32" height="32" viewBox="0 0 32 32" fill="none" xmlns="http://www.w3.org/2000/svg">
<path fill-rule="evenodd" clip-rule="evenodd" d="M18.8046 16.7213C18.625 16.2131 18.2921 15.773 17.852 15.4618C17.4118 15.1506 16.886 14.9835 16.3469 14.9836V14.332H15.0438V14.9836C14.3525 14.9836 13.6896 15.2582 13.2009 15.747C12.7121 16.2357 12.4375 16.8986 12.4375 17.5899C12.4375 18.2811 12.7121 18.944 13.2009 19.4328C13.6896 19.9215 14.3525 20.1961 15.0438 20.1961V22.8024C14.4769 22.8024 13.9941 22.4408 13.8143 21.9339C13.7876 21.8509 13.7445 21.7742 13.6877 21.7082C13.6308 21.6422 13.5613 21.5882 13.4832 21.5496C13.4052 21.5109 13.3201 21.4883 13.2332 21.483C13.1462 21.4778 13.0591 21.49 12.9769 21.5191C12.8948 21.5481 12.8193 21.5933 12.7549 21.652C12.6906 21.7107 12.6386 21.7817 12.6022 21.8608C12.5657 21.94 12.5455 22.0256 12.5428 22.1127C12.54 22.1998 12.5547 22.2865 12.5861 22.3678C12.7657 22.8761 13.0985 23.3161 13.5387 23.6273C13.9789 23.9385 14.5047 24.1056 15.0438 24.1055V24.7571H16.3469V24.1055C17.0381 24.1055 17.701 23.8309 18.1898 23.3422C18.6786 22.8534 18.9532 22.1905 18.9532 21.4993C18.9532 20.808 18.6786 20.1451 18.1898 19.6564C17.701 19.1676 17.0381 18.893 16.3469 18.893V16.2867C16.6164 16.2867 16.8793 16.3702 17.0994 16.5257C17.3194 16.6812 17.4859 16.9012 17.5758 17.1553C17.6333 17.3182 17.7532 17.4516 17.9091 17.5262C17.9863 17.5631 18.0701 17.5844 18.1555 17.589C18.241 17.5935 18.3265 17.5812 18.4072 17.5527C18.4878 17.5242 18.5621 17.4801 18.6258 17.4229C18.6894 17.3657 18.7412 17.2965 18.7781 17.2193C18.815 17.1421 18.8363 17.0584 18.8409 16.973C18.8454 16.8875 18.8331 16.802 18.8046 16.7213ZM15.0438 16.2867C14.6982 16.2867 14.3667 16.424 14.1223 16.6684C13.8779 16.9128 13.7406 17.2443 13.7406 17.5899C13.7406 17.9355 13.8779 18.2669 14.1223 18.5113C14.3667 18.7557 14.6982 18.893 15.0438 18.893V16.2867ZM16.3469 22.8024C16.6925 22.8024 17.024 22.6651 17.2684 22.4207C17.5127 22.1763 17.65 21.8449 17.65 21.4993C17.65 21.1536 17.5127 20.8222 17.2684 20.5778C17.024 20.3334 16.6925 20.1961 16.3469 20.1961V22.8024Z" fill="black"/>
<path fill-rule="evenodd" clip-rule="evenodd" d="M8.62927 6.26635C10.2282 5.48382 12.8514 4.55859 15.7222 4.55859C18.5331 4.55859 21.0872 5.44538 22.6777 6.21748L22.7676 6.26114C23.2472 6.49831 23.6342 6.72245 23.9065 6.90423L21.4997 10.4227C27.0484 16.0952 31.3344 28.013 15.7222 28.013C0.110033 28.013 4.28071 16.3115 9.87767 10.4227L7.48642 6.90423C7.67081 6.78369 7.90472 6.64361 8.18359 6.49505C8.32173 6.42077 8.47028 6.3441 8.62927 6.26635ZM19.9528 10.3764L21.8795 7.55971C20.0877 7.68872 17.9558 8.10963 15.9034 8.70386C14.4373 9.12738 12.8084 9.06287 11.3 8.78465C10.9199 8.71428 10.5424 8.63039 10.1683 8.53315L11.4193 10.3751C14.1005 11.3297 17.271 11.3297 19.9528 10.3764ZM10.6667 11.4847C13.804 12.6967 17.5746 12.6967 20.7119 11.4834C22.0211 12.8642 23.1166 14.4329 23.9619 16.1376C24.8428 17.9346 25.3224 19.731 25.2442 21.2791C25.1686 22.7731 24.5809 24.0496 23.2387 24.9982C21.8398 25.9867 19.487 26.7099 15.7216 26.7099C11.9523 26.7099 9.58837 25.999 8.17643 25.0217C6.82443 24.0854 6.23085 22.8259 6.1468 21.3521C6.05884 19.8209 6.52796 18.0336 7.40562 16.2242C8.24289 14.4989 9.41115 12.838 10.6667 11.4847ZM9.91741 7.11013C10.4387 7.2652 10.9834 7.40007 11.5359 7.50237C12.9368 7.76039 14.3415 7.79818 15.5404 7.4509C16.9375 7.04374 18.3585 6.72364 19.7952 6.49244C18.5963 6.13148 17.1941 5.86173 15.7216 5.86173C13.4769 5.86173 11.3834 6.48788 9.91741 7.11013Z" fill="black"/>
</svg>
