<svg width="25" height="25" viewBox="0 0 25 25" fill="none" xmlns="http://www.w3.org/2000/svg">
<path fill-rule="evenodd" clip-rule="evenodd" d="M17.1686 7.72581C16.6502 7.72581 16.153 7.51986 15.7864 7.15329C15.4199 6.78671 15.2139 6.28952 15.2139 5.77111C15.2139 5.25269 15.4199 4.7555 15.7864 4.38892C16.153 4.02235 16.6502 3.81641 17.1686 3.81641C17.687 3.81641 18.1842 4.02235 18.5508 4.38892C18.9174 4.7555 19.1233 5.25269 19.1233 5.77111C19.1233 6.28952 18.9174 6.78671 18.5508 7.15329C18.1842 7.51986 17.687 7.72581 17.1686 7.72581ZM17.1686 6.74846C16.9094 6.74846 16.6608 6.64548 16.4775 6.4622C16.2942 6.27891 16.1913 6.03031 16.1913 5.77111C16.1913 5.5119 16.2942 5.2633 16.4775 5.08002C16.6608 4.89673 16.9094 4.79376 17.1686 4.79376C17.4278 4.79376 17.6764 4.89673 17.8597 5.08002C18.043 5.2633 18.146 5.5119 18.146 5.77111C18.146 6.03031 18.043 6.27891 17.8597 6.4622C17.6764 6.64548 17.4278 6.74846 17.1686 6.74846ZM19.6755 9.11462C19.1912 8.82288 18.6566 8.70315 18.124 8.70315H16.2137C15.6811 8.70315 15.1465 8.82288 14.6622 9.11413C14.1784 9.40489 13.8315 9.8144 13.591 10.2591C13.1371 11.0982 13.0154 12.1473 13.0154 13.1716V13.2146C13.0154 13.2293 13.0159 13.2438 13.0168 13.2581L13.0207 13.3011L13.0212 13.3074L13.0222 13.329L13.0237 13.4057C13.0242 13.4721 13.0237 13.5645 13.0227 13.6906L13.0207 13.8724V13.8743C13.0178 14.0737 13.0149 14.3107 13.0149 14.5673C13.0149 14.7804 13.0614 14.9911 13.1511 15.1845C13.2409 15.3778 13.3718 15.5493 13.5346 15.6869C13.6974 15.8246 13.8883 15.925 14.094 15.9813C14.2996 16.0375 14.515 16.0483 14.7252 16.0128V20.187C14.7244 20.499 14.8429 20.7995 15.0565 21.0269C15.2701 21.2543 15.5626 21.3913 15.874 21.41C16.1854 21.4286 16.4922 21.3274 16.7313 21.127C16.9705 20.9267 17.124 20.6425 17.1603 20.3326L17.1691 20.2603L17.1774 20.3326C17.2137 20.6425 17.3672 20.9267 17.6064 21.127C17.8456 21.3274 18.1523 21.4286 18.4637 21.41C18.7752 21.3913 19.0677 21.2543 19.2813 21.0269C19.4948 20.7995 19.6134 20.499 19.6125 20.187V16.0128C19.692 16.0264 19.7734 16.0333 19.8568 16.0333C20.2456 16.0333 20.6185 15.8788 20.8935 15.6039C21.1684 15.329 21.3228 14.9561 21.3228 14.5673C21.3228 14.3102 21.3199 14.0727 21.3175 13.8733L21.315 13.6906C21.3138 13.57 21.3139 13.4495 21.3155 13.329L21.3165 13.3074V13.3011L21.3209 13.2581C21.3222 13.2434 21.3228 13.2289 21.3228 13.2146V13.1716C21.3228 12.1473 21.2007 11.0982 20.7462 10.2591C20.5063 9.8144 20.1593 9.40489 19.676 9.11413M14.4809 15.0559C14.5666 15.0561 14.6509 15.0337 14.7252 14.9909V12.1239H15.7026V20.187C15.7019 20.2497 15.7253 20.3103 15.7681 20.3563C15.8108 20.4022 15.8696 20.4299 15.9322 20.4336C15.9949 20.4374 16.0565 20.417 16.1045 20.3765C16.1524 20.336 16.183 20.2787 16.1898 20.2163L16.6834 16.1002C16.6975 15.9815 16.7547 15.872 16.8441 15.7926C16.9336 15.7131 17.049 15.6693 17.1686 15.6693C17.2882 15.6693 17.4037 15.7131 17.4931 15.7926C17.5825 15.872 17.6397 15.9815 17.6539 16.1002L18.1479 20.2163C18.1548 20.2787 18.1853 20.336 18.2332 20.3765C18.2812 20.417 18.3429 20.4374 18.4055 20.4336C18.4681 20.4299 18.5269 20.4022 18.5696 20.3563C18.6124 20.3103 18.6358 20.2497 18.6351 20.187V12.1239H19.6125V14.9909C19.6868 15.0338 19.7711 15.0564 19.8569 15.0564C19.9428 15.0564 20.0271 15.0338 20.1014 14.9908C20.1757 14.9479 20.2373 14.8861 20.2802 14.8118C20.3231 14.7374 20.3456 14.6531 20.3455 14.5673C20.3455 14.3171 20.3426 14.084 20.3401 13.8841L20.3377 13.7008C20.3329 13.5387 20.3349 13.3765 20.3435 13.2146L20.3455 13.1931V13.1716C20.3455 12.1962 20.2233 11.3459 19.8871 10.7243C19.7141 10.4047 19.4801 10.1374 19.1717 9.95221C18.8638 9.76651 18.5095 9.6805 18.124 9.6805H16.2137C15.8287 9.6805 15.4744 9.76651 15.1655 9.95172C14.8577 10.1374 14.6231 10.4047 14.4506 10.7238C14.1144 11.3459 13.9927 12.1962 13.9927 13.1711V13.1931L13.9942 13.2146C14.0015 13.2977 14.0025 13.455 14.0001 13.7008L13.9976 13.8821V13.8846C13.9952 14.0844 13.9927 14.3166 13.9927 14.5673C13.9927 14.6969 14.0442 14.8212 14.1359 14.9128C14.2275 15.0044 14.3513 15.0559 14.4809 15.0559ZM5.68476 5.77111C5.68476 6.28952 5.8907 6.78671 6.25728 7.15329C6.62386 7.51986 7.12104 7.72581 7.63946 7.72581C8.15788 7.72581 8.65506 7.51986 9.02164 7.15329C9.38822 6.78671 9.59416 6.28952 9.59416 5.77111C9.59416 5.25269 9.38822 4.7555 9.02164 4.38892C8.65506 4.02235 8.15788 3.81641 7.63946 3.81641C7.12104 3.81641 6.62386 4.02235 6.25728 4.38892C5.8907 4.7555 5.68476 5.25269 5.68476 5.77111ZM6.66211 5.77111C6.66211 6.03031 6.76508 6.27891 6.94837 6.4622C7.13166 6.64548 7.38025 6.74846 7.63946 6.74846C7.89867 6.74846 8.14726 6.64548 8.33055 6.4622C8.51384 6.27891 8.61681 6.03031 8.61681 5.77111C8.61681 5.5119 8.51384 5.2633 8.33055 5.08002C8.14726 4.89673 7.89867 4.79376 7.63946 4.79376C7.38025 4.79376 7.13166 4.89673 6.94837 5.08002C6.76508 5.2633 6.66211 5.5119 6.66211 5.77111ZM5.95549 8.92013C6.25463 8.77344 6.58405 8.69911 6.9172 8.70315H8.85137C9.0615 8.70315 9.42801 8.72661 9.81211 8.92013C10.4625 9.24754 10.8334 9.78362 11.0543 10.2571C11.2649 10.7106 11.3866 11.212 11.4765 11.6293C11.5625 12.0257 11.5645 12.0359 11.6134 12.2866C11.6598 12.5261 11.7512 12.9952 12.0092 14.2789C12.0534 14.499 12.0464 14.7263 11.9889 14.9433C11.9313 15.1603 11.8247 15.3612 11.6773 15.5305C11.5298 15.6997 11.3454 15.8329 11.1384 15.9196C10.9313 16.0064 10.7071 16.0444 10.4831 16.0308L10.7469 17.5457C10.8198 17.966 10.6077 18.4239 10.1556 18.5851C9.42545 18.8393 8.65745 18.9679 7.88429 18.9653C6.86002 18.9653 6.05664 18.7435 5.61293 18.5851C5.16041 18.4239 4.94833 17.9655 5.02163 17.5462L5.28551 16.0313C5.0614 16.0446 4.83722 16.0064 4.63022 15.9195C4.42321 15.8326 4.23889 15.6993 4.09145 15.53C3.944 15.3607 3.83735 15.1599 3.7797 14.9429C3.72204 14.7259 3.71493 14.4986 3.75889 14.2784C4.01691 12.9947 4.1083 12.5256 4.15472 12.2861C4.20359 12.0359 4.20554 12.0257 4.29155 11.6293C4.38147 11.212 4.50315 10.7106 4.71376 10.2571C4.93416 9.78362 5.30506 9.24754 5.95549 8.92013ZM7.15176 9.6805H6.9172C6.77793 9.6805 6.58539 9.69712 6.39529 9.7929C6.00778 9.98837 5.7649 10.3158 5.59973 10.6696C5.43847 11.0165 5.33487 11.4256 5.24642 11.836C5.16237 12.2255 5.1609 12.2319 5.11545 12.4669L5.11399 12.4728C5.06708 12.7147 4.97569 13.1848 4.71719 14.4715C4.69862 14.5641 4.70729 14.6601 4.74215 14.7479C4.77701 14.8356 4.83655 14.9114 4.91359 14.9661C4.99062 15.0207 5.08184 15.0519 5.1762 15.0558C5.27057 15.0597 5.36404 15.0361 5.44531 14.988L6.02488 11.7999L6.9861 11.9748L6.68068 13.6559L6.69241 13.6432L5.99018 17.6816C6.60029 17.887 7.24005 17.9905 7.8838 17.988C8.73067 17.988 9.40016 17.8121 9.7779 17.6816L9.07568 13.6451L9.0874 13.6583L8.78149 11.9748L9.74321 11.7999L10.3228 14.9885C10.4041 15.0365 10.4975 15.06 10.5919 15.056C10.6862 15.052 10.7774 15.0208 10.8544 14.9661C10.9313 14.9114 10.9908 14.8356 11.0256 14.7478C11.0604 14.66 11.069 14.564 11.0504 14.4715C10.9158 13.8057 10.7835 13.1395 10.6536 12.4728L10.6521 12.4674C10.6116 12.2563 10.568 12.0458 10.5212 11.836C10.4322 11.4256 10.3291 11.0165 10.1674 10.6696C10.0027 10.3158 9.75982 9.98788 9.3723 9.7929C9.20952 9.71513 9.03076 9.67663 8.8504 9.6805H7.15176Z" fill="black"/>
<path d="M9.45763 21.3663C9.63206 21.3411 9.79159 21.254 9.90701 21.1208C10.0224 20.9876 10.086 20.8173 10.0861 20.6411V19.4541C9.48924 19.5386 8.88856 19.5933 8.28627 19.6178L8.64985 20.8483C8.69973 21.0173 8.80885 21.1627 8.9572 21.2578C9.10555 21.353 9.2832 21.3915 9.45763 21.3663ZM7.5127 19.6271L7.11932 20.8634C7.06644 21.0304 6.95554 21.1729 6.80668 21.2652C6.65782 21.3574 6.48084 21.3934 6.30779 21.3664C6.13474 21.3395 5.97705 21.2515 5.86327 21.1184C5.74949 20.9852 5.68714 20.8157 5.6875 20.6406V19.4991C6.32815 19.5758 6.92287 19.6188 7.5127 19.6271Z" fill="black"/>
</svg>
