<svg width="22" height="23" viewBox="0 0 22 23" fill="none" xmlns="http://www.w3.org/2000/svg">
<path d="M1.64301 9.22055H3.99788V17.359H2.36758C2.22346 17.359 2.08523 17.4346 1.98332 17.5693C1.88141 17.704 1.82415 17.8866 1.82415 18.0771C1.82415 18.2675 1.88141 18.4502 1.98332 18.5848C2.08523 18.7195 2.22346 18.7952 2.36758 18.7952H19.7574C19.9015 18.7952 20.0398 18.7195 20.1417 18.5848C20.2436 18.4502 20.3008 18.2675 20.3008 18.0771C20.3008 17.8866 20.2436 17.704 20.1417 17.5693C20.0398 17.4346 19.9015 17.359 19.7574 17.359H18.1271V9.22055H20.482C20.6003 9.22043 20.7153 9.16931 20.8096 9.07496C20.9039 8.98061 20.9724 8.84817 21.0045 8.69776C21.0367 8.54734 21.0309 8.38716 20.9879 8.24153C20.9449 8.09591 20.8671 7.97279 20.7664 7.89087L11.3469 0.231186C11.2613 0.161755 11.1629 0.125 11.0625 0.125C10.9621 0.125 10.8637 0.161755 10.7781 0.231186L1.35861 7.89087C1.25787 7.97279 1.18011 8.09591 1.13713 8.24153C1.09415 8.38716 1.0883 8.54734 1.12047 8.69776C1.15264 8.84817 1.22107 8.98061 1.31538 9.07496C1.40969 9.16931 1.52472 9.22043 1.64301 9.22055ZM5.08475 9.22055H8.34534V17.359H5.08475V9.22055ZM12.6928 9.22055V17.359H9.4322V9.22055H12.6928ZM17.0403 17.359H13.7797V9.22055H17.0403V17.359ZM11.0625 1.68054L18.5619 7.78436H3.56314L11.0625 1.68054ZM21.75 21.9069C21.75 22.0974 21.6927 22.28 21.5908 22.4147C21.4889 22.5493 21.3507 22.625 21.2066 22.625H0.918432C0.774305 22.625 0.636081 22.5493 0.534168 22.4147C0.432254 22.28 0.375 22.0974 0.375 21.9069C0.375 21.7165 0.432254 21.5338 0.534168 21.3991C0.636081 21.2645 0.774305 21.1888 0.918432 21.1888H21.2066C21.3507 21.1888 21.4889 21.2645 21.5908 21.3991C21.6927 21.5338 21.75 21.7165 21.75 21.9069Z" fill="black"/>
</svg>
