<svg width="22" height="23" viewBox="0 0 22 23" fill="none" xmlns="http://www.w3.org/2000/svg">
<path d="M0.375 20.7765H21.921V22.3155H0.375V20.7765ZM17.6888 7.695H4.992C4.58383 7.695 4.19238 7.85714 3.90376 8.14576C3.61514 8.43438 3.453 8.82583 3.453 9.234V15.39C3.45422 16.41 3.85998 17.388 4.58126 18.1092C5.30254 18.8305 6.28046 19.2363 7.3005 19.2375H13.4565C14.4765 19.2363 15.4545 18.8305 16.1757 18.1092C16.897 17.388 17.3028 16.41 17.304 15.39V14.6205H17.6888C18.6071 14.6205 19.4879 14.2557 20.1373 13.6063C20.7867 12.9569 21.1515 12.0761 21.1515 11.1577C21.1515 10.2394 20.7867 9.35861 20.1373 8.70922C19.4879 8.05982 18.6071 7.695 17.6888 7.695ZM15.765 15.39C15.7644 16.0021 15.521 16.5889 15.0882 17.0217C14.6554 17.4545 14.0686 17.6979 13.4565 17.6985H7.3005C6.68844 17.6979 6.10161 17.4545 5.66882 17.0217C5.23602 16.5889 4.99261 16.0021 4.992 15.39V9.234H15.765V15.39ZM17.6888 13.0815H17.304V9.234H17.6888C18.199 9.234 18.6883 9.43668 19.049 9.79745C19.4098 10.1582 19.6125 10.6475 19.6125 11.1577C19.6125 11.668 19.4098 12.1573 19.049 12.518C18.6883 12.8788 18.199 13.0815 17.6888 13.0815ZM13.4565 6.156H11.9175V6.04365C11.9185 5.75768 11.8393 5.47716 11.689 5.23386C11.5387 4.99055 11.3233 4.79419 11.0672 4.66702L9.0011 3.63512C8.48882 3.38076 8.05801 2.98804 7.75745 2.50144C7.45689 2.01483 7.2986 1.45379 7.3005 0.881847V0H8.8395V0.881847C8.83862 1.1679 8.91788 1.44848 9.0683 1.69179C9.21872 1.9351 9.43429 2.13141 9.69057 2.25848L11.7551 3.29038C12.2676 3.54463 12.6985 3.9373 12.9992 4.42392C13.2999 4.91053 13.4583 5.47163 13.4565 6.04365V6.156Z" fill="black"/>
</svg>
