<svg width="27" height="13" viewBox="0 0 27 13" fill="none" xmlns="http://www.w3.org/2000/svg">
<path d="M7.95745 0.875H4.85037C4.67379 0.875 4.50444 0.945147 4.37958 1.07001C4.25472 1.19487 4.18457 1.36422 4.18457 1.5408V11.3059C4.18457 11.3933 4.20179 11.4799 4.23525 11.5607C4.26871 11.6415 4.31775 11.7149 4.37958 11.7767C4.44141 11.8385 4.5148 11.8876 4.59558 11.921C4.67636 11.9545 4.76294 11.9717 4.85037 11.9717H7.95745C8.04489 11.9717 8.13147 11.9545 8.21225 11.921C8.29302 11.8876 8.36642 11.8385 8.42825 11.7767C8.49007 11.7149 8.53912 11.6415 8.57258 11.5607C8.60604 11.4799 8.62326 11.3933 8.62326 11.3059V1.5408C8.62326 1.36422 8.55311 1.19487 8.42825 1.07001C8.30339 0.945147 8.13404 0.875 7.95745 0.875ZM21.2735 0.875H18.1664C17.9899 0.875 17.8205 0.945147 17.6956 1.07001C17.5708 1.19487 17.5006 1.36422 17.5006 1.5408V11.3059C17.5006 11.3933 17.5179 11.4799 17.5513 11.5607C17.5848 11.6415 17.6338 11.7149 17.6956 11.7767C17.7575 11.8385 17.8309 11.8876 17.9116 11.921C17.9924 11.9545 18.079 11.9717 18.1664 11.9717H21.2735C21.3609 11.9717 21.4475 11.9545 21.5283 11.921C21.6091 11.8876 21.6825 11.8385 21.7443 11.7767C21.8061 11.7149 21.8552 11.6415 21.8886 11.5607C21.9221 11.4799 21.9393 11.3933 21.9393 11.3059V1.5408C21.9393 1.36422 21.8692 1.19487 21.7443 1.07001C21.6194 0.945147 21.4501 0.875 21.2735 0.875Z" stroke="black" stroke-width="1.66451" stroke-linecap="round" stroke-linejoin="round"/>
<path d="M8.62317 6.42276H17.5005M0.855469 9.08598V3.75955C0.855469 3.58297 0.925616 3.41362 1.05048 3.28876C1.17534 3.1639 1.34469 3.09375 1.52127 3.09375H3.51868C3.69526 3.09375 3.86461 3.1639 3.98947 3.28876C4.11434 3.41362 4.18448 3.58297 4.18448 3.75955V9.08598C4.18448 9.26256 4.11434 9.43191 3.98947 9.55677C3.86461 9.68163 3.69526 9.75178 3.51868 9.75178H1.52127C1.34469 9.75178 1.17534 9.68163 1.05048 9.55677C0.925616 9.43191 0.855469 9.26256 0.855469 9.08598ZM25.2682 9.08598V3.75955C25.2682 3.58297 25.1981 3.41362 25.0732 3.28876C24.9484 3.1639 24.779 3.09375 24.6024 3.09375H22.605C22.4285 3.09375 22.2591 3.1639 22.1342 3.28876C22.0094 3.41362 21.9392 3.58297 21.9392 3.75955V9.08598C21.9392 9.26256 22.0094 9.43191 22.1342 9.55677C22.2591 9.68163 22.4285 9.75178 22.605 9.75178H24.6024C24.779 9.75178 24.9484 9.68163 25.0732 9.55677C25.1981 9.43191 25.2682 9.26256 25.2682 9.08598Z" stroke="black" stroke-width="1.66451" stroke-linecap="round" stroke-linejoin="round"/>
</svg>
