<svg width="22" height="22" viewBox="0 0 22 22" fill="none" xmlns="http://www.w3.org/2000/svg">
<path d="M15.3375 21.375C13.5563 21.375 12.0422 20.7516 10.7953 19.5047C9.54844 18.2578 8.925 16.7438 8.925 14.9625C8.925 13.1813 9.54844 11.6672 10.7953 10.4203C12.0422 9.17344 13.5563 8.55 15.3375 8.55C17.1188 8.55 18.6328 9.17344 19.8797 10.4203C21.1266 11.6672 21.75 13.1813 21.75 14.9625C21.75 16.7438 21.1266 18.2578 19.8797 19.5047C18.6328 20.7516 17.1188 21.375 15.3375 21.375ZM15.3375 19.2375C16.5131 19.2375 17.5195 18.8189 18.3567 17.9817C19.1939 17.1445 19.6125 16.1381 19.6125 14.9625C19.6125 13.7869 19.1939 12.7805 18.3567 11.9433C17.5195 11.1061 16.5131 10.6875 15.3375 10.6875C14.1619 10.6875 13.1555 11.1061 12.3183 11.9433C11.4811 12.7805 11.0625 13.7869 11.0625 14.9625C11.0625 16.1381 11.4811 17.1445 12.3183 17.9817C13.1555 18.8189 14.1619 19.2375 15.3375 19.2375ZM0.375 19.2375V8.49656L2.67281 3.20625H1.44375V0H11.0625V3.20625H9.83344L11.5969 7.2675C11.2584 7.44563 10.9378 7.63266 10.635 7.82859C10.3322 8.02453 10.0472 8.24719 9.78 8.49656L7.53562 3.20625H4.97063L2.5125 8.9775V17.1H7.05469C7.14375 17.4741 7.26381 17.8439 7.41486 18.2094C7.56591 18.5749 7.74866 18.9176 7.96313 19.2375H0.375ZM15.3375 7.48125C14.5894 7.48125 13.957 7.22297 13.4405 6.70641C12.9239 6.18984 12.6656 5.5575 12.6656 4.80938C12.6656 4.06125 12.9239 3.42891 13.4405 2.91234C13.957 2.39578 14.5894 2.1375 15.3375 2.1375V7.48125ZM15.3375 7.48125C15.3375 6.73313 15.5958 6.10078 16.1123 5.58422C16.6289 5.06766 17.2613 4.80938 18.0094 4.80938C18.7575 4.80938 19.3898 5.06766 19.9064 5.58422C20.423 6.10078 20.6813 6.73313 20.6813 7.48125H15.3375Z" fill="black"/>
</svg>
