<svg width="20" height="22" viewBox="0 0 20 22" fill="none" xmlns="http://www.w3.org/2000/svg">
<path d="M2.57478 21.7906C1.96948 21.7906 1.45175 21.5751 1.02159 21.144C0.591439 20.7129 0.375908 20.1961 0.375 19.5935V8.59873C0.375 8.25025 0.453045 7.92038 0.609135 7.6091C0.765225 7.29783 0.980302 7.04146 1.25437 6.84L8.5847 1.31604C8.96857 1.02201 9.40689 0.875 9.89967 0.875C10.3924 0.875 10.8335 1.02201 11.2228 1.31604L18.5531 6.83864C18.8281 7.0401 19.0432 7.29692 19.1984 7.6091C19.3545 7.92038 19.4325 8.25025 19.4325 8.59873V19.5935C19.4325 20.1979 19.217 20.7152 18.7859 21.1454C18.3548 21.5755 17.8376 21.7911 17.2341 21.792L2.57478 21.7906ZM2.57478 20.4294H17.2341C17.4782 20.4294 17.6788 20.3509 17.8358 20.1939C17.9928 20.0369 18.0713 19.8363 18.0713 19.5922V8.59737C18.0713 8.45762 18.0409 8.33057 17.98 8.21622C17.9192 8.10188 17.8362 8.00205 17.7309 7.91675L10.402 2.41866C10.2622 2.29705 10.0961 2.23625 9.90375 2.23625C9.71136 2.23625 9.54574 2.29705 9.40689 2.41866L2.07656 7.91675C1.9722 8.00387 1.88916 8.10369 1.82745 8.21622C1.76574 8.32875 1.73534 8.4558 1.73625 8.59737V19.5922C1.73625 19.8363 1.81475 20.0369 1.97175 20.1939C2.12874 20.3509 2.32976 20.4294 2.57478 20.4294ZM8.17632 18.1778C8.33967 18.1778 8.47671 18.1229 8.58742 18.0131C8.69632 17.9033 8.75077 17.7663 8.75077 17.602V13.5714C9.23175 13.5714 9.64012 13.4035 9.9759 13.0677C10.3117 12.7319 10.4796 12.3236 10.4796 11.8426V8.96355C10.4796 8.8002 10.4247 8.66316 10.3148 8.55245C10.205 8.44264 10.068 8.38774 9.90375 8.38774C9.73949 8.38774 9.60246 8.44264 9.49265 8.55245C9.38285 8.66226 9.32794 8.79929 9.32794 8.96355V11.8426H8.75213V8.96355C8.75213 8.8002 8.69723 8.66316 8.58742 8.55245C8.47761 8.44264 8.34058 8.38774 8.17632 8.38774C8.01207 8.38774 7.87503 8.44264 7.76523 8.55245C7.65542 8.66226 7.60051 8.79929 7.60051 8.96355V11.8426H7.02471V8.96355C7.02471 8.8002 6.9698 8.66316 6.86 8.55245C6.74928 8.44264 6.61225 8.38774 6.4489 8.38774C6.28555 8.38774 6.14806 8.44264 6.03644 8.55245C5.92754 8.66226 5.87309 8.79929 5.87309 8.96355V11.8426C5.87309 12.3236 6.04098 12.7319 6.37675 13.0677C6.71253 13.4035 7.12045 13.5714 7.60051 13.5714V17.602C7.60051 17.7654 7.65497 17.9024 7.76387 18.0131C7.87458 18.1229 8.01207 18.1778 8.17632 18.1778ZM12.7828 18.1778C12.9471 18.1778 13.0841 18.1229 13.1939 18.0131C13.3037 17.9033 13.3586 17.7663 13.3586 17.602V9.13507C13.3586 8.92453 13.286 8.74756 13.1408 8.60418C12.9956 8.46079 12.8164 8.38819 12.6031 8.38638C12.0795 8.38638 11.6906 8.62686 11.4365 9.10784C11.1824 9.58791 11.0554 10.1156 11.0554 10.691V13.0432C11.0554 13.3563 11.1674 13.604 11.3916 13.7865C11.6157 13.9689 11.8698 14.0891 12.1539 14.1472H12.2083V17.602C12.2083 17.7654 12.2628 17.9024 12.3717 18.0131C12.4815 18.1229 12.6185 18.1778 12.7828 18.1778Z" fill="black"/>
</svg>
