<svg width="18" height="21" viewBox="0 0 18 21" fill="none" xmlns="http://www.w3.org/2000/svg">
<path d="M4.83114 4.35653C4.83114 3.23426 5.27696 2.15795 6.07052 1.36439C6.86409 0.57082 7.94039 0.125 9.06266 0.125C10.1849 0.125 11.2612 0.57082 12.0548 1.36439C12.8484 2.15795 13.2942 3.23426 13.2942 4.35653V5.76704H17.5257V20.8125H0.599609V5.76704H4.83114V4.35653ZM4.83114 7.64772H2.48029V18.9318H15.645V7.64772H13.2942V10.4687H11.4135V7.64772H6.71182V10.4687H4.83114V7.64772ZM11.4135 5.76704V4.35653C11.4135 3.73304 11.1658 3.1351 10.725 2.69423C10.2841 2.25336 9.68615 2.00568 9.06266 2.00568C8.43918 2.00568 7.84123 2.25336 7.40036 2.69423C6.95949 3.1351 6.71182 3.73304 6.71182 4.35653V5.76704H11.4135Z" fill="black"/>
</svg>
