<svg width="21" height="21" viewBox="0 0 21 21" fill="none" xmlns="http://www.w3.org/2000/svg">
<path d="M9.19223 20.3174C9.03248 20.3174 8.89898 20.2634 8.79173 20.1554C8.68448 20.0474 8.63086 19.9136 8.63086 19.7538V13.9128C8.63086 13.8108 8.63648 13.7084 8.64773 13.6057C8.65898 13.5037 8.68336 13.4036 8.72086 13.3053L9.83798 10.1531C9.95873 9.79305 10.1781 9.50055 10.4961 9.27555C10.8141 9.05055 11.17 8.93768 11.5637 8.93693H17.812C18.2057 8.93693 18.5616 9.04943 18.8796 9.27443C19.1976 9.49943 19.4174 9.79193 19.5389 10.1519L20.6549 13.3053C20.6924 13.4028 20.7167 13.5029 20.728 13.6057C20.74 13.7084 20.746 13.8108 20.746 13.9128V19.7549C20.746 19.9139 20.692 20.0474 20.584 20.1554C20.476 20.2627 20.3421 20.3163 20.1824 20.3163C20.0226 20.3163 19.8891 20.2627 19.7819 20.1554C19.6746 20.0482 19.6206 19.9143 19.6199 19.7538V18.4128H9.75586V19.7549C9.75586 19.9139 9.70186 20.0474 9.59386 20.1554C9.48586 20.2634 9.35198 20.3182 9.19223 20.3174ZM10.0146 12.7012H19.3611L18.5511 10.4084C18.5084 10.2644 18.4292 10.1489 18.3137 10.0619C18.1982 9.97493 18.0614 9.9318 17.9031 9.93255H11.4726C11.3144 9.93255 11.1775 9.97568 11.062 10.0619C10.9465 10.1489 10.8674 10.2644 10.8246 10.4084L10.0146 12.7012ZM11.3995 16.4654C11.6815 16.4654 11.9177 16.3702 12.1082 16.1797C12.2987 15.9892 12.394 15.7529 12.394 15.4709C12.394 15.1889 12.2987 14.9527 12.1082 14.7622C11.9177 14.5717 11.6815 14.4761 11.3995 14.4753C11.1175 14.4746 10.8812 14.5702 10.6907 14.7622C10.5002 14.9542 10.4046 15.1904 10.4039 15.4709C10.4031 15.7514 10.4987 15.9877 10.6907 16.1797C10.8827 16.3717 11.119 16.4669 11.3995 16.4654ZM17.9762 16.4654C18.2582 16.4654 18.4945 16.3702 18.685 16.1797C18.8762 15.9892 18.9719 15.7529 18.9719 15.4709C18.9719 15.1889 18.8762 14.9527 18.685 14.7622C18.4937 14.5717 18.2575 14.4761 17.9762 14.4753C17.695 14.4746 17.4587 14.5702 17.2675 14.7622C17.0762 14.9542 16.981 15.1904 16.9817 15.4709C16.9825 15.7514 17.0777 15.9877 17.2675 16.1797C17.4572 16.3717 17.6935 16.4669 17.9762 16.4654ZM4.38961 11.3174V9.58605H6.12098V11.3174H4.38961ZM8.88961 5.69243V3.96105H10.621V5.69243H8.88961ZM4.38961 15.8174V14.0861H6.12098V15.8174H4.38961ZM4.38961 20.3174V18.5861H6.12098V20.3174H4.38961ZM0.755859 20.3174V7.12005C0.755859 6.79005 0.867984 6.51255 1.09223 6.28755C1.31648 6.06255 1.59361 5.95043 1.92361 5.95118H5.25586V1.49505C5.25586 1.16505 5.36798 0.887551 5.59223 0.662551C5.81648 0.437551 6.09361 0.325426 6.42361 0.326176H13.087C13.417 0.326176 13.6945 0.438676 13.9195 0.663676C14.1437 0.887176 14.2559 1.1643 14.2559 1.49505V6.42705H13.1309V1.45118H6.38086V7.07618H1.88086V20.3174H0.755859ZM9.62536 17.4183L19.7504 17.4172V13.6968H9.62536V17.4183Z" fill="black"/>
</svg>
