<svg width="18" height="17" viewBox="0 0 18 17" fill="none" xmlns="http://www.w3.org/2000/svg">
<path d="M8.99977 15.0664C8.09256 15.0664 7.22537 14.8931 6.39821 14.5464C5.60662 14.2086 4.90176 13.7309 4.28361 13.1131C3.66546 12.4953 3.18739 11.7909 2.84941 10.9997C2.50254 10.1731 2.3291 9.30641 2.3291 8.39974C2.3291 7.49307 2.50254 6.62641 2.84941 5.79974C3.18739 5.00863 3.66546 4.30418 4.28361 3.68641C4.90176 3.06863 5.60662 2.59085 6.39821 2.25307C7.22537 1.90641 8.09256 1.73307 8.99977 1.73307C9.90698 1.73307 10.7742 1.90641 11.6013 2.25307C12.3929 2.59085 13.0978 3.06863 13.7159 3.68641C14.3341 4.30418 14.8121 5.00863 15.1501 5.79974C15.497 6.62641 15.6704 7.49307 15.6704 8.39974C15.6704 9.30641 15.497 10.1731 15.1501 10.9997C14.8121 11.7909 14.3341 12.4953 13.7159 13.1131C13.0978 13.7309 12.3929 14.2086 11.6013 14.5464C10.7742 14.8931 9.90698 15.0664 8.99977 15.0664ZM8.99977 13.7331C9.96924 13.7331 10.8676 13.4886 11.6947 12.9997C12.4952 12.5286 13.1311 11.8931 13.6025 11.0931C14.0917 10.2664 14.3363 9.36863 14.3363 8.39974C14.3363 7.43085 14.0917 6.53307 13.6025 5.70641C13.1311 4.90641 12.4952 4.27085 11.6947 3.79974C10.8676 3.31085 9.96924 3.06641 8.99977 3.06641C8.0303 3.06641 7.13198 3.31085 6.30482 3.79974C5.50434 4.27085 4.8684 4.90641 4.39701 5.70641C3.90783 6.53307 3.66323 7.43085 3.66323 8.39974C3.66323 9.36863 3.90783 10.2664 4.39701 11.0931C4.8684 11.8931 5.50434 12.5286 6.30482 12.9997C7.13198 13.4886 8.0303 13.7331 8.99977 13.7331ZM6.66503 9.73307H10.3339C10.4228 9.73307 10.5007 9.69974 10.5674 9.63307C10.6341 9.56641 10.6674 9.48863 10.6674 9.39974C10.6674 9.31085 10.6341 9.23307 10.5674 9.16641C10.5007 9.09974 10.4228 9.06641 10.3339 9.06641H7.66563C7.36323 9.06641 7.08529 8.99085 6.8318 8.83974C6.57832 8.68863 6.37597 8.48641 6.22477 8.23307C6.07357 7.97974 5.99797 7.70196 5.99797 7.39974C5.99797 7.09752 6.07357 6.81974 6.22477 6.56641C6.37597 6.31307 6.57832 6.11085 6.8318 5.95974C7.08529 5.80863 7.36323 5.73307 7.66563 5.73307H8.3327V4.39974H9.66683V5.73307H11.3345V7.06641H7.66563C7.57669 7.06641 7.49887 7.09974 7.43216 7.16641C7.36545 7.23307 7.3321 7.31085 7.3321 7.39974C7.3321 7.48863 7.36545 7.56641 7.43216 7.63307C7.49887 7.69974 7.57669 7.73307 7.66563 7.73307H10.3339C10.6363 7.73307 10.9142 7.80863 11.1677 7.95974C11.4212 8.11085 11.6236 8.31307 11.7748 8.56641C11.926 8.81974 12.0016 9.09752 12.0016 9.39974C12.0016 9.70196 11.926 9.97974 11.7748 10.2331C11.6236 10.4864 11.4212 10.6886 11.1677 10.8397C10.9142 10.9909 10.6363 11.0664 10.3339 11.0664H9.66683V12.3997H8.3327V11.0664H6.66503V9.73307Z" fill="#32CD32"/>
</svg>
