<svg width="18" height="25" viewBox="0 0 18 25" fill="none" xmlns="http://www.w3.org/2000/svg">
<path d="M4.33023 7.4638V13.5838C4.33023 14.0371 4.43473 14.4594 4.64375 14.8505C4.85276 15.2416 5.14405 15.5616 5.51761 15.8105L8.99969 18.1305L12.4818 15.8105C12.8553 15.5616 13.1466 15.2416 13.3556 14.8505C13.5647 14.4594 13.6692 14.0371 13.6692 13.5838V7.4638L8.99969 6.4238L4.33023 7.4638ZM3.51641 6.27713L8.99969 5.0638L14.483 6.27713C14.6342 6.31269 14.7587 6.39269 14.8565 6.51713C14.9544 6.64158 15.0033 6.77936 15.0033 6.93047V13.5838C15.0033 14.2594 14.8454 14.8905 14.5297 15.4771C14.2139 16.0638 13.7759 16.5438 13.2156 16.9171L8.99969 19.7305L4.78383 16.9171C4.2235 16.5438 3.78546 16.0638 3.46971 15.4771C3.15397 14.8905 2.99609 14.2594 2.99609 13.5838V6.93047C2.99609 6.77936 3.04501 6.64158 3.14285 6.51713C3.24068 6.39269 3.3652 6.31269 3.51641 6.27713ZM8.99969 13.3971L7.03852 14.4238L7.41207 12.2505L5.82446 10.7038L8.02578 10.3838L8.99969 8.39713L9.97361 10.3838L12.1749 10.7038L10.5873 12.2505L10.9609 14.4238L8.99969 13.3971Z" fill="#32CD32"/>
</svg>
