<svg width="21" height="22" viewBox="0 0 21 22" fill="none" xmlns="http://www.w3.org/2000/svg">
<path d="M2.75734 2.22169H11.5297C12.0449 2.22169 12.463 2.63978 12.463 3.15492V9.68756C12.463 9.88556 12.5416 10.0755 12.6816 10.2155C12.8216 10.3555 13.0115 10.4341 13.2095 10.4341H16.0092C16.5244 10.4341 16.9425 10.8522 16.9425 11.3674V14.5777C17.201 14.525 17.4677 14.5277 17.7251 14.5856C17.9825 14.6435 18.2246 14.7553 18.4357 14.9137V11.3674C18.4357 11.0487 18.3729 10.7332 18.251 10.4388C18.129 10.1444 17.9503 9.87696 17.725 9.65165C17.4997 9.42633 17.2322 9.24761 16.9378 9.12567C16.6434 9.00373 16.3279 8.94097 16.0092 8.94097H13.9561V3.15492C13.9561 2.83628 13.8934 2.52076 13.7714 2.22638C13.6495 1.93199 13.4708 1.66451 13.2455 1.43919C13.0201 1.21388 12.7527 1.03515 12.4583 0.913215C12.1639 0.791276 11.8484 0.728516 11.5297 0.728516H2.75734C2.16332 0.728516 1.59363 0.96449 1.17359 1.38453C0.753552 1.80456 0.517578 2.37425 0.517578 2.96828V20.8864C0.517578 21.0844 0.596236 21.2743 0.736248 21.4143C0.876261 21.5543 1.06616 21.6329 1.26416 21.6329H10.1971L8.7039 20.1398H2.01075V2.96828C2.01075 2.77027 2.08941 2.58037 2.22942 2.44036C2.36943 2.30035 2.55933 2.22169 2.75734 2.22169ZM5.37039 6.70121C5.6674 6.70121 5.95225 6.58322 6.16227 6.3732C6.37228 6.16319 6.49027 5.87834 6.49027 5.58133C6.49027 5.28432 6.37228 4.99947 6.16227 4.78945C5.95225 4.57944 5.6674 4.46145 5.37039 4.46145C5.07338 4.46145 4.78853 4.57944 4.57852 4.78945C4.3685 4.99947 4.25051 5.28432 4.25051 5.58133C4.25051 5.87834 4.3685 6.16319 4.57852 6.3732C4.78853 6.58322 5.07338 6.70121 5.37039 6.70121ZM5.37039 10.4341C5.6674 10.4341 5.95225 10.3162 6.16227 10.1061C6.37228 9.89612 6.49027 9.61127 6.49027 9.31426C6.49027 9.01725 6.37228 8.7324 6.16227 8.52239C5.95225 8.31237 5.6674 8.19438 5.37039 8.19438C5.07338 8.19438 4.78853 8.31237 4.57852 8.52239C4.3685 8.7324 4.25051 9.01725 4.25051 9.31426C4.25051 9.61127 4.3685 9.89612 4.57852 10.1061C4.78853 10.3162 5.07338 10.4341 5.37039 10.4341ZM6.49027 13.0472C6.49027 13.3442 6.37228 13.6291 6.16227 13.8391C5.95225 14.0491 5.6674 14.1671 5.37039 14.1671C5.07338 14.1671 4.78853 14.0491 4.57852 13.8391C4.3685 13.6291 4.25051 13.3442 4.25051 13.0472C4.25051 12.7502 4.3685 12.4653 4.57852 12.2553C4.78853 12.0453 5.07338 11.9273 5.37039 11.9273C5.6674 11.9273 5.95225 12.0453 6.16227 12.2553C6.37228 12.4653 6.49027 12.7502 6.49027 13.0472ZM9.10332 6.70121C9.40033 6.70121 9.68518 6.58322 9.8952 6.3732C10.1052 6.16319 10.2232 5.87834 10.2232 5.58133C10.2232 5.28432 10.1052 4.99947 9.8952 4.78945C9.68518 4.57944 9.40033 4.46145 9.10332 4.46145C8.80631 4.46145 8.52147 4.57944 8.31145 4.78945C8.10143 4.99947 7.98344 5.28432 7.98344 5.58133C7.98344 5.87834 8.10143 6.16319 8.31145 6.3732C8.52147 6.58322 8.80631 6.70121 9.10332 6.70121ZM10.2232 9.31426C10.2232 9.61127 10.1052 9.89612 9.8952 10.1061C9.68518 10.3162 9.40033 10.4341 9.10332 10.4341C8.80631 10.4341 8.52147 10.3162 8.31145 10.1061C8.10143 9.89612 7.98344 9.61127 7.98344 9.31426C7.98344 9.01725 8.10143 8.7324 8.31145 8.52239C8.52147 8.31237 8.80631 8.19438 9.10332 8.19438C9.40033 8.19438 9.68518 8.31237 9.8952 8.52239C10.1052 8.7324 10.2232 9.01725 10.2232 9.31426ZM9.10332 14.1671C9.40033 14.1671 9.68518 14.0491 9.8952 13.8391C10.1052 13.6291 10.2232 13.3442 10.2232 13.0472C10.2232 12.7502 10.1052 12.4653 9.8952 12.2553C9.68518 12.0453 9.40033 11.9273 9.10332 11.9273C8.80631 11.9273 8.52147 12.0453 8.31145 12.2553C8.10143 12.4653 7.98344 12.7502 7.98344 13.0472C7.98344 13.3442 8.10143 13.6291 8.31145 13.8391C8.52147 14.0491 8.80631 14.1671 9.10332 14.1671ZM12.6175 16.9347C12.7535 16.7939 12.8288 16.6053 12.8271 16.4095C12.8254 16.2138 12.7468 16.0265 12.6084 15.8881C12.47 15.7497 12.2827 15.6712 12.087 15.6694C11.8912 15.6677 11.7026 15.743 11.5618 15.879L9.32207 18.1188C9.18211 18.2588 9.10348 18.4486 9.10348 18.6466C9.10348 18.8446 9.18211 19.0344 9.32207 19.1744L11.5618 21.4142C11.7026 21.5502 11.8912 21.6254 12.087 21.6237C12.2827 21.622 12.47 21.5435 12.6084 21.4051C12.7468 21.2667 12.8254 21.0794 12.8271 20.8837C12.8288 20.6879 12.7535 20.4993 12.6175 20.3585L11.6522 19.3932H17.7533L16.7879 20.3585C16.6519 20.4993 16.5767 20.6879 16.5784 20.8837C16.5801 21.0794 16.6586 21.2667 16.797 21.4051C16.9355 21.5435 17.1227 21.622 17.3185 21.6237C17.5142 21.6254 17.7028 21.5502 17.8436 21.4142L20.0834 19.1744C20.2233 19.0344 20.302 18.8446 20.302 18.6466C20.302 18.4486 20.2233 18.2588 20.0834 18.1188L17.8436 15.879C17.7028 15.743 17.5142 15.6677 17.3185 15.6694C17.1227 15.6712 16.9355 15.7497 16.797 15.8881C16.6586 16.0265 16.5801 16.2138 16.5784 16.4095C16.5767 16.6053 16.6519 16.7939 16.7879 16.9347L17.7533 17.9H11.6522L12.6175 16.9347Z" fill="black"/>
</svg>
