<svg width="22" height="22" viewBox="0 0 22 22" fill="none" xmlns="http://www.w3.org/2000/svg">
<path d="M19.9082 0H1.71676C1.2946 0 0.889726 0.167702 0.591214 0.466214C0.292702 0.764726 0.125 1.1696 0.125 1.59176V19.7832C0.125 20.2054 0.292702 20.6103 0.591214 20.9088C0.889726 21.2073 1.2946 21.375 1.71676 21.375H19.9082C20.3304 21.375 20.7353 21.2073 21.0338 20.9088C21.3323 20.6103 21.5 20.2054 21.5 19.7832V1.59176C21.5 1.1696 21.3323 0.764726 21.0338 0.466214C20.7353 0.167702 20.3304 0 19.9082 0ZM20.1356 19.7832C20.1356 19.8436 20.1117 19.9014 20.069 19.944C20.0264 19.9867 19.9686 20.0106 19.9082 20.0106H1.71676C1.65645 20.0106 1.59861 19.9867 1.55596 19.944C1.51332 19.9014 1.48936 19.8436 1.48936 19.7832V1.59176C1.48936 1.53145 1.51332 1.47361 1.55596 1.43096C1.59861 1.38832 1.65645 1.36436 1.71676 1.36436H19.9082C19.9686 1.36436 20.0264 1.38832 20.069 1.43096C20.1117 1.47361 20.1356 1.53145 20.1356 1.59176V19.7832ZM10.8125 3.6383C9.4183 3.6383 8.05541 4.05173 6.89617 4.8263C5.73694 5.60088 4.83342 6.70181 4.29989 7.98989C3.76635 9.27796 3.62675 10.6953 3.89875 12.0627C4.17074 13.4301 4.84211 14.6862 5.82796 15.672C6.81381 16.6579 8.06986 17.3293 9.43727 17.6013C10.8047 17.8732 12.222 17.7337 13.5101 17.2001C14.7982 16.6666 15.8991 15.7631 16.6737 14.6038C17.4483 13.4446 17.8617 12.0817 17.8617 10.6875C17.8596 8.81858 17.1162 7.02681 15.7947 5.70529C14.4732 4.38376 12.6814 3.6404 10.8125 3.6383ZM10.8125 16.3723C9.68814 16.3723 8.58904 16.0389 7.65417 15.4143C6.71931 14.7896 5.99066 13.9018 5.56039 12.863C5.13012 11.8242 5.01754 10.6812 5.23689 9.57844C5.45624 8.47569 5.99767 7.46275 6.79271 6.66771C7.58775 5.87267 8.60069 5.33124 9.70344 5.11189C10.8062 4.89254 11.9492 5.00512 12.988 5.43539C14.0268 5.86566 14.9146 6.59431 15.5393 7.52917C16.1639 8.46404 16.4973 9.56314 16.4973 10.6875C16.4955 12.1947 15.896 13.6396 14.8303 14.7053C13.7646 15.771 12.3197 16.3705 10.8125 16.3723ZM18.7713 3.86569C18.7713 4.09056 18.7046 4.31038 18.5797 4.49736C18.4547 4.68433 18.2772 4.83006 18.0694 4.91611C17.8617 5.00217 17.633 5.02468 17.4125 4.98081C17.1919 4.93694 16.9894 4.82866 16.8304 4.66965C16.6713 4.51064 16.5631 4.30805 16.5192 4.0875C16.4753 3.86695 16.4978 3.63835 16.5839 3.43059C16.6699 3.22284 16.8157 3.04527 17.0026 2.92034C17.1896 2.79541 17.4094 2.72872 17.6343 2.72872C17.9359 2.72872 18.225 2.84851 18.4383 3.06173C18.6515 3.27496 18.7713 3.56415 18.7713 3.86569ZM10.385 9.35043L8.56585 11.1696C8.43653 11.2901 8.26549 11.3557 8.08876 11.3526C7.91203 11.3494 7.74341 11.2778 7.61842 11.1529C7.49343 11.0279 7.42184 10.8592 7.41872 10.6825C7.4156 10.5058 7.4812 10.3347 7.6017 10.2054L9.42085 8.38628C9.55017 8.26578 9.72121 8.20017 9.89794 8.20329C10.0747 8.20641 10.2433 8.27801 10.3683 8.40299C10.4933 8.52798 10.5649 8.6966 10.568 8.87333C10.5711 9.05007 10.5055 9.22111 10.385 9.35043ZM14.0233 9.29585C14.151 9.42376 14.2228 9.59715 14.2228 9.77793C14.2228 9.9587 14.151 10.1321 14.0233 10.26L10.385 13.8983C10.2557 14.0188 10.0846 14.0844 9.90791 14.0813C9.73118 14.0782 9.56256 14.0066 9.43757 13.8816C9.31258 13.7566 9.24099 13.588 9.23787 13.4112C9.23475 13.2345 9.30035 13.0635 9.42085 12.9341L13.0591 9.29585C13.1871 9.1681 13.3604 9.09634 13.5412 9.09634C13.722 9.09634 13.8954 9.1681 14.0233 9.29585Z" fill="black"/>
</svg>
