<svg width="23" height="23" viewBox="0 0 23 23" fill="none" xmlns="http://www.w3.org/2000/svg">
<path d="M20.8053 12.7995H3.33212V4.60896C3.33128 4.30051 3.39163 3.99495 3.50967 3.70998C3.62771 3.42501 3.8011 3.16628 4.01981 2.94878L4.03801 2.93057C4.38077 2.58832 4.82084 2.36023 5.29809 2.27747C5.77535 2.19471 6.26652 2.26131 6.7045 2.46817C6.29086 3.1559 6.11894 3.96215 6.21604 4.75879C6.31314 5.55543 6.67371 6.29677 7.24044 6.86501L7.73874 7.36331L6.82153 8.28056L7.85109 9.31012L8.7683 8.39291L13.8505 3.3108L14.7677 2.39359L13.7381 1.36399L12.8209 2.2812L12.3225 1.78289C11.7259 1.18795 10.9395 0.821211 10.1003 0.746575C9.26102 0.671938 8.42219 0.894139 7.72996 1.37446C7.00001 0.913471 6.13497 0.71446 5.27695 0.810117C4.41894 0.905774 3.61897 1.29041 3.00846 1.90084L2.99026 1.91904C2.6359 2.27146 2.35496 2.69066 2.1637 3.15239C1.97244 3.61412 1.87466 4.10919 1.87602 4.60896V12.7995H0.419922V14.2556H1.87602V15.6526C1.87599 15.7699 1.89492 15.8866 1.93208 15.9979L3.28662 20.0613C3.35891 20.2789 3.4979 20.4681 3.68387 20.6022C3.86983 20.7362 4.0933 20.8083 4.32255 20.8081H4.90954L4.3787 22.6282H5.89545L6.42634 20.8081H15.8955L16.4416 22.6282H17.9614L17.4154 20.8081H18.3586C18.5879 20.8083 18.8114 20.7363 18.9974 20.6022C19.1834 20.4682 19.3224 20.2789 19.3947 20.0613L20.7492 15.9979C20.7864 15.8866 20.8053 15.77 20.8053 15.6526V14.2556H22.2614V12.7995H20.8053ZM8.27013 2.81249C8.67128 2.41221 9.21484 2.18741 9.78154 2.18741C10.3482 2.18741 10.8918 2.41221 11.2929 2.81249L11.7912 3.3108L8.76843 6.33353L8.27013 5.83531C7.86987 5.43415 7.64508 4.8906 7.64508 4.3239C7.64508 3.75721 7.86987 3.21366 8.27013 2.81249ZM19.3492 15.5934L18.0964 19.352H4.58492L3.33212 15.5934V14.2556H19.3492V15.5934Z" fill="black"/>
</svg>
