<svg width="22" height="25" viewBox="0 0 22 25" fill="none" xmlns="http://www.w3.org/2000/svg">
<path d="M9.44713 20.0196L5.73855 16.311L6.67283 15.3767L9.44713 18.1523L14.9477 12.6517L15.8807 13.586L9.44713 20.0196ZM2.52565 24.4055C1.92789 24.4055 1.42917 24.2057 1.02951 23.806C0.629841 23.4063 0.429576 22.9076 0.428711 22.3099V5.73932C0.428711 5.14242 0.628976 4.64414 1.02951 4.24447C1.43004 3.84481 1.92875 3.64454 2.52565 3.64368H4.82113V0.75H6.21866V3.64368H15.5018V0.75H16.7994V3.64368H19.0949C19.6918 3.64368 20.1905 3.84394 20.591 4.24447C20.9916 4.645 21.1914 5.14372 21.1905 5.74062V22.3099C21.1905 22.9068 20.9907 23.4055 20.591 23.806C20.1914 24.2065 19.6922 24.4064 19.0936 24.4055H2.52565ZM2.52565 23.1079H19.0949C19.2938 23.1079 19.4768 23.0248 19.6438 22.8587C19.8107 22.6926 19.8938 22.5093 19.8929 22.3086V10.9311H1.72632V22.3099C1.72632 22.5088 1.80937 22.6918 1.97547 22.8587C2.14156 23.0257 2.32452 23.1087 2.52436 23.1079M1.72632 9.63216H19.8929V5.73932C19.8929 5.54036 19.8099 5.35739 19.6438 5.19043C19.4777 5.02347 19.2943 4.94043 19.0936 4.94129H2.52565C2.32582 4.94129 2.14243 5.02434 1.97547 5.19043C1.80851 5.35653 1.72546 5.53992 1.72632 5.74062V9.63216Z" fill="black"/>
</svg>
