<svg width="25" height="24" viewBox="0 0 25 24" fill="none" xmlns="http://www.w3.org/2000/svg">
<path d="M3.07545 23.2995C2.39772 23.2995 1.81963 23.0704 1.34117 22.6122C0.863723 22.1541 0.625 21.5993 0.625 20.9479V2.35355C0.625 1.70316 0.863723 1.14839 1.34117 0.689231C1.81861 0.231046 2.39671 0.00195312 3.07545 0.00195312H22.4514C23.1292 0.00195312 23.7073 0.231046 24.1857 0.689231C24.6632 1.14742 24.9019 1.70219 24.9019 2.35355V20.9479C24.9019 21.5983 24.6632 22.1531 24.1857 22.6122C23.7083 23.0704 23.1302 23.2995 22.4514 23.2995H3.07545ZM13.5221 12.3788V21.8434H22.4514C22.7235 21.8434 22.9471 21.7594 23.1221 21.5915C23.2971 21.4236 23.3846 21.209 23.3846 20.9479V12.3788H13.5221ZM13.5221 10.9227H23.3846V2.35355C23.3846 2.09242 23.2971 1.87789 23.1221 1.70996C22.9471 1.54202 22.7235 1.45805 22.4514 1.45805H13.5221V10.9227ZM12.0048 10.9227V1.45805H3.07545C2.80334 1.45805 2.57979 1.54202 2.4048 1.70996C2.2298 1.87789 2.14231 2.09242 2.14231 2.35355V10.9227H12.0048ZM12.0048 12.3788H2.14231V20.9479C2.14231 21.209 2.2298 21.4236 2.4048 21.5915C2.57979 21.7594 2.80334 21.8434 3.07545 21.8434H12.0048V12.3788Z" fill="black"/>
</svg>
