<svg width="18" height="25" viewBox="0 0 18 25" fill="none" xmlns="http://www.w3.org/2000/svg">
<path d="M7.99962 5.73307L12.8692 7.25307C13.0115 7.29752 13.1249 7.37752 13.2094 7.49307C13.2939 7.60863 13.3362 7.74196 13.3362 7.89307V9.06641H14.6703C14.8571 9.06641 15.0149 9.13085 15.1439 9.25974C15.2729 9.38863 15.3374 9.54641 15.3374 9.73307V15.0664C15.3374 15.2531 15.2729 15.4109 15.1439 15.5397C15.0149 15.6686 14.8571 15.7331 14.6703 15.7331H12.5223C12.2555 16.0797 11.9442 16.3775 11.5884 16.6264L7.99962 19.0664L4.4108 16.6264C3.86825 16.2531 3.44133 15.7731 3.13003 15.1864C2.81873 14.5997 2.66309 13.9775 2.66309 13.3197V7.89307C2.66309 7.74196 2.70533 7.60863 2.78983 7.49307C2.87432 7.37752 2.98773 7.29752 3.13003 7.25307L7.99962 5.73307ZM7.99962 7.13307L3.99722 8.37307V13.3197C3.99722 13.7286 4.08838 14.1197 4.27072 14.4931C4.45305 14.8664 4.70876 15.1775 5.03784 15.4264L5.15792 15.5197L7.99962 17.4531L10.5211 15.7331H7.33255C7.14577 15.7331 6.9879 15.6686 6.85893 15.5397C6.72997 15.4109 6.66549 15.2531 6.66549 15.0664V9.73307C6.66549 9.54641 6.72997 9.38863 6.85893 9.25974C6.9879 9.13085 7.14577 9.06641 7.33255 9.06641H12.002V8.37307L7.99962 7.13307ZM7.99962 12.3997V14.3997H14.0032V12.3997H7.99962ZM7.99962 11.0664H14.0032V10.3997H7.99962V11.0664Z" fill="#32CD32"/>
</svg>
