<svg width="18" height="25" viewBox="0 0 18 25" fill="none" xmlns="http://www.w3.org/2000/svg">
<path d="M8.99977 19.0664C8.09256 19.0664 7.22537 18.8931 6.39821 18.5464C5.60662 18.2086 4.90176 17.7309 4.28361 17.1131C3.66546 16.4953 3.18739 15.7909 2.84941 14.9997C2.50254 14.1731 2.3291 13.3064 2.3291 12.3997C2.3291 11.4931 2.50254 10.6264 2.84941 9.79974C3.18739 9.00863 3.66546 8.30418 4.28361 7.68641C4.90176 7.06863 5.60662 6.59085 6.39821 6.25307C7.22537 5.90641 8.09256 5.73307 8.99977 5.73307C9.90698 5.73307 10.7742 5.90641 11.6013 6.25307C12.3929 6.59085 13.0978 7.06863 13.7159 7.68641C14.3341 8.30418 14.8121 9.00863 15.1501 9.79974C15.497 10.6264 15.6704 11.4931 15.6704 12.3997C15.6704 13.3064 15.497 14.1731 15.1501 14.9997C14.8121 15.7909 14.3341 16.4953 13.7159 17.1131C13.0978 17.7309 12.3929 18.2086 11.6013 18.5464C10.7742 18.8931 9.90698 19.0664 8.99977 19.0664ZM8.99977 17.7331C9.96924 17.7331 10.8676 17.4886 11.6947 16.9997C12.4952 16.5286 13.1311 15.8931 13.6025 15.0931C14.0917 14.2664 14.3363 13.3686 14.3363 12.3997C14.3363 11.4309 14.0917 10.5331 13.6025 9.70641C13.1311 8.90641 12.4952 8.27085 11.6947 7.79974C10.8676 7.31085 9.96924 7.06641 8.99977 7.06641C8.0303 7.06641 7.13198 7.31085 6.30482 7.79974C5.50434 8.27085 4.8684 8.90641 4.39701 9.70641C3.90783 10.5331 3.66323 11.4309 3.66323 12.3997C3.66323 13.3686 3.90783 14.2664 4.39701 15.0931C4.8684 15.8931 5.50434 16.5286 6.30482 16.9997C7.13198 17.4886 8.0303 17.7331 8.99977 17.7331ZM9.66683 12.3997H12.3351V13.7331H8.3327V9.06641H9.66683V12.3997Z" fill="#32CD32"/>
</svg>
